<svg xmlns="http://www.w3.org/2000/svg" width="1600" height="1000" viewBox="0 0 1600 1000">
  <defs>
    <linearGradient id="bg" x1="0" y1="0" x2="1" y2="1">
      <stop offset="0" stop-color="#ffffff"/>
      <stop offset="1" stop-color="#eef4ff"/>
    </linearGradient>
    <linearGradient id="accent" x1="0" y1="0" x2="1" y2="0">
      <stop offset="0" stop-color="#003366"/>
      <stop offset="1" stop-color="#0b5aa6"/>
    </linearGradient>
    <filter id="softShadow" x="-20%" y="-20%" width="140%" height="140%">
      <feDropShadow dx="0" dy="14" stdDeviation="18" flood-color="#003366" flood-opacity="0.12"/>
    </filter>
  </defs>

  <rect width="1600" height="1000" fill="url(#bg)"/>

  <circle cx="1220" cy="270" r="260" fill="#003366" opacity="0.08"/>
  <circle cx="1180" cy="310" r="170" fill="#993300" opacity="0.08"/>
  <circle cx="260" cy="820" r="220" fill="#003366" opacity="0.06"/>

  <g filter="url(#softShadow)">
    <rect x="140" y="150" width="1320" height="700" rx="44" fill="#ffffff" stroke="#e5e7eb"/>
  </g>

  <g transform="translate(230 240)">
    <rect x="0" y="0" width="420" height="420" rx="34" fill="url(#accent)"/>
    <path d="M110 248c0-86 64-156 148-156s148 70 148 156" fill="none" stroke="#ffffff" stroke-width="22" stroke-linecap="round"/>
    <path d="M170 248c0-52 38-94 88-94s88 42 88 94" fill="none" stroke="#ffffff" stroke-width="22" stroke-linecap="round" opacity="0.9"/>
    <circle cx="258" cy="262" r="24" fill="#ffffff"/>
    <path d="M258 300v46" stroke="#ffffff" stroke-width="18" stroke-linecap="round" opacity="0.9"/>
  </g>

  <g transform="translate(720 270)" fill="#0f172a">
    <text x="0" y="0" font-family="Inter, ui-sans-serif, system-ui, -apple-system, Segoe UI, Roboto, Arial" font-size="56" font-weight="800">
      SAP Consulting
    </text>
    <text x="0" y="78" font-family="Inter, ui-sans-serif, system-ui, -apple-system, Segoe UI, Roboto, Arial" font-size="28" font-weight="600" fill="#334155">
      S/4HANA migration • AMS • Integrations
    </text>
    <text x="0" y="138" font-family="Inter, ui-sans-serif, system-ui, -apple-system, Segoe UI, Roboto, Arial" font-size="22" fill="#475569">
      Build resilient enterprise processes with secure architecture,
    </text>
    <text x="0" y="172" font-family="Inter, ui-sans-serif, system-ui, -apple-system, Segoe UI, Roboto, Arial" font-size="22" fill="#475569">
      clean data strategy, and performance-led delivery.
    </text>
  </g>

  <g transform="translate(720 520)">
    <rect x="0" y="0" width="210" height="64" rx="999" fill="#003366"/>
    <text x="30" y="42" font-family="Inter, ui-sans-serif, system-ui, -apple-system, Segoe UI, Roboto, Arial" font-size="20" font-weight="700" fill="#ffffff">
      Explore SAP
    </text>
    <rect x="240" y="0" width="270" height="64" rx="999" fill="#ffffff" stroke="#cbd5e1"/>
    <text x="270" y="42" font-family="Inter, ui-sans-serif, system-ui, -apple-system, Segoe UI, Roboto, Arial" font-size="20" font-weight="700" fill="#0f172a">
      Talk to Experts
    </text>
  </g>
</svg>

